<svg width="230" height="256" viewBox="0 0 230 256" fill="none" xmlns="http://www.w3.org/2000/svg">
<g clip-path="url(#clip0_8570_35603)">
<path d="M218.562 241.295C217.132 241.798 215.597 241.924 214.105 241.661C212.612 241.398 211.213 240.755 210.041 239.794C207.056 237.289 206.119 233.163 205.359 229.341L203.107 218.038L207.822 221.285C211.212 223.619 214.679 226.029 217.027 229.41C219.375 232.792 220.399 237.408 218.513 241.067" fill="#E6E6E6"/>
<path d="M218.159 254.98C218.636 251.504 219.126 247.983 218.792 244.47C218.494 241.35 217.543 238.303 215.605 235.804C214.576 234.48 213.324 233.346 211.906 232.452C211.536 232.219 211.196 232.805 211.564 233.037C214.018 234.588 215.916 236.879 216.985 239.578C218.165 242.58 218.355 245.853 218.15 249.041C218.027 250.97 217.766 252.885 217.503 254.799C217.482 254.886 217.495 254.977 217.539 255.055C217.583 255.132 217.655 255.19 217.74 255.216C217.827 255.24 217.919 255.228 217.997 255.183C218.075 255.139 218.133 255.066 218.157 254.979L218.159 254.98Z" fill="#F2F2F2"/>
<path d="M201.071 197.246H3.82471V0H201.071V197.246Z" fill="white"/>
<path d="M201.071 197.246H3.82471V0H201.071V197.246ZM6.73898 194.332H198.157V2.9143H6.73898V194.332Z" fill="#E5E5E5"/>
<path d="M166.128 30.8593H80.7124V33.52H166.128V30.8593Z" fill="#E5E5E5"/>
<path d="M166.128 37.7772H80.7124V40.438H166.128V37.7772Z" fill="#E5E5E5"/>
<path d="M166.128 44.6952H80.7124V47.3559H166.128V44.6952Z" fill="#E5E5E5"/>
<path d="M166.128 90.2623H80.7124V92.9231H166.128V90.2623Z" fill="#E5E5E5"/>
<path d="M166.128 97.1802H80.7124V99.8409H166.128V97.1802Z" fill="#E5E5E5"/>
<path d="M166.128 104.098H80.7124V106.759H166.128V104.098Z" fill="#E5E5E5"/>
<path d="M166.128 149.665H80.7124V152.326H166.128V149.665Z" fill="#E5E5E5"/>
<path d="M166.128 156.583H80.7124V159.244H166.128V156.583Z" fill="#E5E5E5"/>
<path d="M166.128 163.501H80.7124V166.162H166.128V163.501Z" fill="#E5E5E5"/>
<path d="M46.5183 52.0587C45.0591 51.2898 43.536 50.6488 41.9661 50.143L41.7659 47.9285L33.6472 47.0538L32.6154 49.8843L29.7018 50.9777C29.5975 51.0172 29.4983 51.0689 29.4061 51.1317H29.403C29.2404 51.2416 29.1019 51.3835 28.996 51.5487C28.89 51.7139 28.8189 51.899 28.787 52.0926C28.7559 52.2852 28.7632 52.482 28.8086 52.6716L28.9626 53.303C29.1843 53.4355 29.4123 53.5617 29.6401 53.6818L29.7849 53.7558C30.1176 53.9283 30.4564 54.0915 30.8044 54.2424C30.8752 54.2732 30.9523 54.304 31.0231 54.3348C31.0293 54.3379 31.0323 54.3379 31.0384 54.341C31.2018 54.4087 31.3649 54.4734 31.5312 54.535C32.0776 54.7437 32.6349 54.9226 33.2006 55.0709C34.6444 55.4557 36.1323 55.6504 37.6265 55.65C38.1716 55.65 38.7106 55.6253 39.2434 55.573C40.4609 55.4606 41.6628 55.2179 42.8285 54.8492C42.8316 54.8492 42.8347 54.8461 42.8377 54.8461C43.5741 54.6115 44.2935 54.3264 44.9907 53.9929C44.9937 53.9899 44.9999 53.9899 45.003 53.9868C45.16 53.9129 45.311 53.8328 45.465 53.7558L45.5388 53.7188C45.662 53.6541 45.7853 53.5895 45.9085 53.5217C46.2165 53.3523 46.5183 53.1737 46.817 52.9827C46.9001 52.9334 46.9803 52.8811 47.0635 52.8256C47.1805 52.7486 47.2975 52.6685 47.4115 52.5854C47.125 52.4006 46.8263 52.2251 46.5183 52.0587Z" fill="#021A27"/>
<path d="M31.2817 53.4231L30.7736 51.1285H29.4461C29.4327 51.1287 29.4194 51.1298 29.4061 51.1316H29.4029C28.9259 51.172 28.4665 51.3308 28.0663 51.5936C27.7949 51.7669 27.5535 51.9833 27.3518 52.2342C27.746 52.533 28.1556 52.8102 28.5776 53.0751L28.5961 53.0843C28.7161 53.1582 28.8394 53.2321 28.9626 53.303C29.1843 53.4354 29.4123 53.5617 29.6401 53.6818L29.7849 53.7557C30.1176 53.9282 30.4564 54.0914 30.8044 54.2423C30.8753 54.2731 30.9523 54.3039 31.0231 54.3347C31.0293 54.3378 31.0323 54.3378 31.0384 54.3409C31.2018 54.4087 31.3649 54.4734 31.5312 54.535L31.2817 53.4231Z" fill="#021A27"/>
<path d="M37.3879 45.6538C40.6172 45.6538 43.2351 43.0359 43.2351 39.8066C43.2351 36.5773 40.6172 33.9595 37.3879 33.9595C34.1586 33.9595 31.5408 36.5773 31.5408 39.8066C31.5408 43.0359 34.1586 45.6538 37.3879 45.6538Z" fill="#FFB8B8"/>
<path d="M33.4622 36.9586C34.0675 37.6749 35.0919 37.8771 36.0368 37.9599C38.246 38.082 40.4615 37.9011 42.6217 37.4222C42.7555 38.7196 42.3906 40.1184 43.1547 41.1855C43.5129 39.8936 43.7212 38.5647 43.7755 37.225C43.8325 36.6503 43.7574 36.0701 43.556 35.5287C43.4484 35.2575 43.2667 35.0218 43.0318 34.8486C42.7969 34.6754 42.5181 34.5716 42.2271 34.5489C42.6627 34.2185 43.1729 34.0003 43.7128 33.9138L41.8562 32.9807L42.333 32.4913L38.9717 32.2856L39.9453 31.6671C38.48 31.4658 36.9976 31.419 35.5226 31.5275C34.8333 31.5278 34.1571 31.7158 33.5665 32.0712C33.0115 32.4681 32.6908 33.2569 33.0354 33.8395C32.604 33.9104 32.1979 34.0901 31.8555 34.3618C31.5131 34.6335 31.2457 34.9881 31.0787 35.3921C30.8675 36.0342 30.8165 36.7182 30.9301 37.3844C31.0568 38.4535 31.3052 39.5045 31.6706 40.5171L33.4622 36.9586Z" fill="#383E43"/>
<path d="M53.8299 33.4682C53.0095 31.1114 51.6849 28.9619 49.9484 27.1696C48.2119 25.3773 46.1054 23.9853 43.7757 23.0908C41.446 22.1963 38.9492 21.8208 36.4595 21.9903C33.9697 22.1599 31.5469 22.8706 29.36 24.0727C27.1731 25.2749 25.2748 26.9396 23.7974 28.9508C22.3199 30.962 21.299 33.2712 20.8058 35.7175C20.3125 38.1638 20.3588 40.6882 20.9415 43.1148C21.5241 45.5414 22.6291 47.8116 24.1793 49.7673C24.3332 49.9613 24.4934 50.1553 24.6567 50.3432C24.6691 50.3555 24.6782 50.3679 24.6906 50.3802C25.092 50.8428 25.5187 51.2828 25.9687 51.6984C26.0859 51.8062 26.209 51.9171 26.3322 52.0218C26.5662 52.2312 26.8065 52.4314 27.056 52.6224C27.1545 52.6994 27.25 52.7764 27.3517 52.8503C27.7458 53.149 28.1555 53.4262 28.5775 53.6911L28.596 53.7003C28.716 53.7743 28.8393 53.8482 28.9625 53.919C29.1842 54.0515 29.4122 54.1777 29.64 54.2979L29.7848 54.3718C30.1175 54.5443 30.4563 54.7075 30.8043 54.8584C30.8751 54.8892 30.9521 54.92 31.023 54.9508C31.0291 54.9539 31.0321 54.9539 31.0383 54.957C31.2016 55.0247 31.3648 55.0894 31.5311 55.151C32.0775 55.3597 32.6347 55.5386 33.2004 55.6869C34.6442 56.0717 36.1321 56.2664 37.6263 56.266C38.1715 56.266 38.7105 56.2413 39.2433 56.189C40.4608 56.0766 41.6627 55.8339 42.8284 55.4652C42.8314 55.4652 42.8346 55.4621 42.8376 55.4621C43.574 55.2275 44.2933 54.9424 44.9906 54.6089C44.9936 54.6059 44.9997 54.6059 45.0029 54.6028C45.1599 54.5289 45.3109 54.4488 45.4649 54.3718L45.5387 54.3348C45.6619 54.2701 45.7852 54.2055 45.9084 54.1377C46.2164 53.9683 46.5182 53.7897 46.8169 53.5987C46.9 53.5494 46.9802 53.4971 47.0633 53.4416C47.1803 53.3646 47.2974 53.2846 47.4113 53.2014C47.5622 53.0967 47.7132 52.9889 47.861 52.878C47.9072 52.8441 47.9565 52.8103 48.0027 52.7733C50.8882 50.5831 53.0061 47.5356 54.053 44.0675C55.0998 40.5995 55.0217 36.8891 53.8299 33.4682ZM47.436 52.0248C47.3344 52.1049 47.2297 52.1819 47.1249 52.2528C47.0232 52.3298 46.9217 52.4037 46.8169 52.4714C46.7275 52.5361 46.6382 52.5977 46.5459 52.6563L46.5182 52.6747C46.4504 52.7209 46.3827 52.764 46.3149 52.8072C46.0592 52.9673 45.8005 53.1213 45.5387 53.2692L45.4555 53.3154C45.3385 53.38 45.2215 53.4417 45.1045 53.5033C45.0891 53.5125 45.0706 53.5186 45.0552 53.5279L45.0367 53.5371C44.8889 53.6141 44.7379 53.688 44.5871 53.7589C44.0047 54.0393 43.4049 54.2821 42.7914 54.4857C42.7113 54.5135 42.6313 54.5412 42.5513 54.5658C41.4479 54.9168 40.31 55.1481 39.1572 55.2557C38.652 55.3019 38.1407 55.3266 37.6264 55.3266C36.2131 55.3295 34.8056 55.1451 33.4408 54.7783C32.7403 54.5955 32.0538 54.3629 31.3865 54.0823C31.3525 54.0669 31.3155 54.0546 31.2816 54.0392C31.2448 54.0238 31.2108 54.0114 31.177 53.996C31.14 53.9806 31.1061 53.9652 31.0691 53.9468C30.7796 53.8205 30.4931 53.6819 30.213 53.5371L30.0775 53.4663C29.7355 53.2877 29.3998 53.0967 29.0733 52.8934C28.9778 52.8349 28.8793 52.7733 28.7868 52.7086C28.7623 52.6932 28.7407 52.6778 28.716 52.6624C28.4974 52.5177 28.2787 52.3667 28.0662 52.2097C27.9215 52.1018 27.7767 51.9941 27.635 51.8832C27.3979 51.7045 27.1699 51.5136 26.9482 51.3165C26.8312 51.2179 26.7172 51.1101 26.6064 51.0085C26.1697 50.6053 25.7563 50.1775 25.3682 49.7272C25.2389 49.5794 25.1126 49.4316 24.9924 49.2776C24.9651 49.2471 24.9394 49.2152 24.9154 49.1821C22.9143 46.6569 21.7106 43.5929 21.4579 40.3808C21.2052 37.1688 21.915 33.9542 23.4966 31.1472C25.0783 28.3401 27.4602 26.0678 30.3385 24.6199C33.2169 23.1721 36.4612 22.6143 39.6579 23.0178C42.8545 23.4213 45.8585 24.7678 48.2867 26.8855C50.715 29.0032 52.4575 31.7962 53.292 34.9083C54.1265 38.0203 54.0151 41.3104 52.9722 44.3589C51.9292 47.4074 50.0019 50.0761 47.436 52.0248Z" fill="#021A27"/>
<path d="M53.8301 92.8711C53.0097 90.5143 51.6851 88.3648 49.9486 86.5725C48.2122 84.7802 46.1056 83.3883 43.7759 82.4938C41.4462 81.5993 38.9494 81.2237 36.4597 81.3933C33.9699 81.5629 31.5471 82.2735 29.3603 83.4757C27.1734 84.6778 25.275 86.3425 23.7976 88.3537C22.3202 90.3649 21.2993 92.6741 20.806 95.1204C20.3128 97.5667 20.3591 100.091 20.9417 102.518C21.5244 104.944 22.6293 107.215 24.1795 109.17C24.3335 109.364 24.4936 109.558 24.6568 109.746C24.6691 109.758 24.6783 109.771 24.6906 109.783C25.0922 110.246 25.519 110.686 25.9689 111.101C26.0859 111.209 26.2091 111.32 26.3323 111.425C26.5664 111.634 26.8066 111.834 27.0561 112.025C27.5432 112.409 28.0512 112.766 28.5776 113.094L28.5961 113.103C28.9379 113.316 29.2859 113.513 29.6402 113.701L29.7849 113.775C30.1175 113.947 30.4564 114.11 30.8044 114.261C30.8752 114.292 30.9522 114.323 31.023 114.354C31.0292 114.357 31.0323 114.357 31.0385 114.36C31.7417 114.652 32.4641 114.896 33.2006 115.09C34.6444 115.475 36.1323 115.669 37.6264 115.669C38.1716 115.669 38.7106 115.644 39.2434 115.592C40.4609 115.479 41.6628 115.237 42.8285 114.868C42.8316 114.868 42.8347 114.865 42.8377 114.865C43.5741 114.63 44.2934 114.345 44.9906 114.012C44.9936 114.009 44.9999 114.009 45.003 114.006C45.16 113.932 45.3109 113.852 45.4649 113.775L45.5389 113.738C45.6621 113.673 45.7853 113.608 45.9084 113.541C46.2164 113.371 46.5183 113.193 46.8171 113.002C46.9002 112.952 46.9802 112.9 47.0634 112.845C47.3344 112.666 47.6024 112.475 47.8611 112.281C47.9074 112.247 47.9566 112.213 48.0029 112.176C50.8883 109.986 53.0062 106.938 54.053 103.47C55.0998 100.002 55.0218 96.292 53.8301 92.8711Z" fill="white"/>
<path d="M43.2885 105.583C44.7087 105.583 45.8599 104.432 45.8599 103.012C45.8599 101.592 44.7087 100.441 43.2885 100.441C41.8683 100.441 40.717 101.592 40.717 103.012C40.717 104.432 41.8683 105.583 43.2885 105.583Z" fill="#383E43"/>
<path d="M44.0051 100.511C44.4501 100.511 44.8876 100.627 45.2746 100.847C45.6617 101.066 45.9851 101.383 46.2132 101.765C46.4413 102.147 46.5664 102.582 46.5761 103.027C46.5859 103.472 46.48 103.912 46.2688 104.303C46.4917 104.024 46.654 103.702 46.7455 103.357C46.8369 103.012 46.8554 102.651 46.7999 102.299C46.7444 101.946 46.616 101.609 46.4229 101.308C46.2299 101.008 45.9764 100.751 45.6786 100.554C45.3808 100.357 45.0452 100.225 44.6933 100.165C44.3413 100.104 43.9807 100.118 43.6344 100.205C43.2881 100.292 42.9637 100.45 42.6819 100.669C42.4001 100.889 42.167 101.164 41.9976 101.478C42.2379 101.177 42.5433 100.933 42.891 100.765C43.2386 100.598 43.6192 100.511 44.0051 100.511Z" fill="#383E43"/>
<path d="M38.4833 103.006C42.6552 103.006 46.0372 99.6244 46.0372 95.4526C46.0372 91.2807 42.6552 87.8987 38.4833 87.8987C34.3114 87.8987 30.9294 91.2807 30.9294 95.4526C30.9294 99.6244 34.3114 103.006 38.4833 103.006Z" fill="#383E43"/>
<path d="M32.5547 90.7659C33.8563 89.302 35.6757 88.4012 37.6289 88.2534C39.5821 88.1056 41.5163 88.7224 43.0234 89.9737C42.9618 89.9149 42.9002 89.8557 42.8364 89.7988C41.3442 88.462 39.3821 87.7727 37.3817 87.8826C35.3813 87.9925 33.5065 88.8925 32.1697 90.3847C30.8329 91.8769 30.1437 93.8391 30.2536 95.8395C30.3635 97.8399 31.2635 99.7147 32.7557 101.051C32.7701 101.064 32.7845 101.077 32.7989 101.09C32.8629 101.147 32.9289 101.201 32.9945 101.255C31.5753 99.9051 30.7362 98.0565 30.6542 96.0994C30.5722 94.1423 31.2534 92.2299 32.5547 90.7659Z" fill="#383E43"/>
<path d="M38.4193 102.942C41.1062 102.942 43.2844 100.764 43.2844 98.0774C43.2844 95.3905 41.1062 93.2123 38.4193 93.2123C35.7324 93.2123 33.5542 95.3905 33.5542 98.0774C33.5542 100.764 35.7324 102.942 38.4193 102.942Z" fill="#A0616A"/>
<path d="M47.125 110.753V112.386C46.8261 112.577 46.5243 112.755 46.2163 112.925C46.0932 112.992 45.97 113.057 45.8468 113.122L45.7728 113.159C45.6188 113.236 45.4678 113.316 45.3108 113.39C45.3078 113.393 45.3015 113.393 45.2985 113.396C44.6013 113.729 43.882 114.014 43.1455 114.249C43.1425 114.249 43.1395 114.252 43.1364 114.252C41.9707 114.621 40.7688 114.864 39.5513 114.976C39.0185 115.028 38.4795 115.053 37.9343 115.053C36.4401 115.053 34.9523 114.859 33.5085 114.474C32.772 114.28 32.0496 114.036 31.3464 113.744C31.3403 113.741 31.3371 113.741 31.3309 113.738C31.2601 113.707 31.1831 113.676 31.1123 113.645C30.7643 113.494 30.4254 113.331 30.0928 113.159L29.9481 113.085C29.5938 112.897 29.2458 112.7 28.904 112.487L28.8855 112.478C28.3591 112.15 27.8511 111.793 27.364 111.409C27.1145 111.218 26.8743 111.018 26.6402 110.809C26.517 110.704 26.3938 110.593 26.2768 110.485C25.8269 110.07 25.4001 109.63 24.9985 109.167C25.0518 108.846 25.1301 108.53 25.2327 108.222L25.2357 108.218C25.2541 108.166 25.2757 108.114 25.3004 108.064C25.3174 108.02 25.3369 107.977 25.3589 107.935C25.9102 106.903 26.9082 106.648 28.1463 106.592C28.8455 106.561 29.6185 106.595 30.4348 106.586C30.8659 106.583 31.3124 106.568 31.7591 106.528C34.5772 106.272 34.066 104.609 34.1922 103.713C34.3185 102.844 35.1009 103.595 35.1532 103.645L35.1562 103.648C36.751 104.394 38.5154 104.703 40.269 104.544C40.5708 104.507 40.8726 104.486 41.1744 104.476C41.9691 104.467 41.7966 104.695 41.5226 104.883C41.3896 104.97 41.2506 105.049 41.1068 105.117C41.1068 105.117 40.9804 105.887 40.8511 107.039C40.7279 108.141 42.8407 108.659 43.0162 108.699C43.0199 108.701 43.0242 108.702 43.0286 108.702C43.8002 108.502 44.6125 108.523 45.3725 108.764H45.3755C45.8098 108.923 46.1973 109.189 46.5028 109.536C46.8083 109.884 47.0222 110.302 47.125 110.753Z" fill="#0097F0"/>
<path d="M31.3772 112.734C31.3772 112.962 31.3711 113.18 31.3618 113.387C31.3588 113.51 31.3526 113.63 31.3465 113.744C31.3403 113.741 31.3372 113.741 31.331 113.738C31.2602 113.707 31.1832 113.676 31.1123 113.645C30.7643 113.494 30.4255 113.331 30.0928 113.159L29.9482 113.085C29.5939 112.897 29.2459 112.7 28.904 112.487C28.9132 112.379 28.9287 112.272 28.944 112.164C28.9779 111.927 29.0057 111.686 29.0242 111.449C29.1453 109.783 28.8433 108.114 28.1464 106.595V106.592C28.0847 106.469 28.0479 106.401 28.0479 106.401C28.0479 106.401 28.944 105.631 30.2222 106.401C30.3038 106.449 30.3759 106.512 30.4348 106.586C31.2048 107.495 31.4142 110.55 31.3772 112.734Z" fill="#383E43"/>
<path d="M45.3633 112.315C45.3509 112.66 45.3324 113.02 45.3109 113.387V113.39C45.3079 113.393 45.3016 113.393 45.2986 113.396C44.6014 113.729 43.882 114.015 43.1456 114.249C43.1426 114.249 43.1396 114.252 43.1365 114.252L43.1026 113.387L43.0995 113.273L42.9363 109.059C42.9319 108.964 42.9469 108.869 42.9804 108.779C43.0139 108.69 43.0651 108.608 43.131 108.539C43.1969 108.47 43.2762 108.415 43.3639 108.377C43.4517 108.34 43.5461 108.32 43.6416 108.32H45.2031C45.2801 108.32 45.3356 108.477 45.3726 108.761V108.764C45.4483 109.946 45.4452 111.133 45.3633 112.315Z" fill="#383E43"/>
<path d="M34.2581 91.996V96.8623H35.3847L36.8184 95.326L36.6266 96.8623H41.6068L41.2988 95.326L41.9148 96.8623H42.7088V91.996H34.2581Z" fill="#383E43"/>
<path d="M33.49 97.7573C33.7021 97.7573 33.8741 97.442 33.8741 97.0532C33.8741 96.6643 33.7021 96.3491 33.49 96.3491C33.2779 96.3491 33.106 96.6643 33.106 97.0532C33.106 97.442 33.2779 97.7573 33.49 97.7573Z" fill="#A0616A"/>
<path d="M43.3487 97.7573C43.5608 97.7573 43.7327 97.442 43.7327 97.0532C43.7327 96.6643 43.5608 96.3491 43.3487 96.3491C43.1366 96.3491 42.9646 96.6643 42.9646 97.0532C42.9646 97.442 43.1366 97.7573 43.3487 97.7573Z" fill="#A0616A"/>
<path d="M48.1691 111.665C47.9104 111.859 47.6424 112.05 47.3714 112.229C47.2882 112.284 47.2082 112.336 47.1251 112.386C46.8262 112.577 46.5244 112.755 46.2164 112.925C46.0933 112.992 45.9701 113.057 45.8469 113.122V109.728C45.8469 109.728 46.3396 110.122 47.1251 110.778C47.2236 110.861 47.3252 110.947 47.433 111.04C47.6609 111.231 47.9074 111.44 48.1691 111.665Z" fill="#0097F0"/>
<path d="M53.8301 92.8711C53.0097 90.5143 51.6851 88.3648 49.9486 86.5725C48.2122 84.7802 46.1056 83.3883 43.7759 82.4938C41.4462 81.5993 38.9494 81.2237 36.4597 81.3933C33.9699 81.5629 31.5471 82.2735 29.3603 83.4757C27.1734 84.6778 25.275 86.3425 23.7976 88.3537C22.3202 90.3649 21.2993 92.6741 20.806 95.1204C20.3128 97.5667 20.3591 100.091 20.9417 102.518C21.5244 104.944 22.6293 107.215 24.1795 109.17C24.3335 109.364 24.4936 109.558 24.6568 109.746C24.6691 109.758 24.6783 109.771 24.6906 109.783C25.0922 110.246 25.519 110.686 25.9689 111.101C26.0859 111.209 26.2091 111.32 26.3323 111.425C26.5664 111.634 26.8066 111.834 27.0561 112.025C27.5432 112.409 28.0512 112.766 28.5776 113.094L28.5961 113.103C28.9379 113.316 29.2859 113.513 29.6402 113.701L29.7849 113.775C30.1175 113.947 30.4564 114.11 30.8044 114.261C30.8752 114.292 30.9522 114.323 31.023 114.354C31.0292 114.357 31.0323 114.357 31.0385 114.36C31.7417 114.652 32.4641 114.896 33.2006 115.09C34.6444 115.475 36.1323 115.669 37.6264 115.669C38.1716 115.669 38.7106 115.644 39.2434 115.592C40.4609 115.479 41.6628 115.237 42.8285 114.868C42.8316 114.868 42.8347 114.865 42.8377 114.865C43.5741 114.63 44.2934 114.345 44.9906 114.012C44.9936 114.009 44.9999 114.009 45.003 114.006C45.16 113.932 45.3109 113.852 45.4649 113.775L45.5389 113.738C45.6621 113.673 45.7853 113.608 45.9084 113.541C46.2164 113.371 46.5183 113.193 46.8171 113.002C46.9002 112.952 46.9802 112.9 47.0634 112.845C47.3344 112.666 47.6024 112.475 47.8611 112.281C47.9074 112.247 47.9566 112.213 48.0029 112.176C50.8883 109.986 53.0062 106.938 54.053 103.47C55.0998 100.002 55.0218 96.292 53.8301 92.8711ZM47.4361 111.428C47.3344 111.508 47.2297 111.585 47.1251 111.656C47.0234 111.733 46.9218 111.807 46.8171 111.874C46.7278 111.939 46.6384 112.001 46.5459 112.059C46.4689 112.112 46.3919 112.161 46.3149 112.21C46.0594 112.37 45.8008 112.524 45.5389 112.672L45.4556 112.718C45.3386 112.783 45.2216 112.845 45.1046 112.906C45.0891 112.915 45.0706 112.922 45.0553 112.931L45.0368 112.94C44.889 113.017 44.7381 113.091 44.5871 113.162C44.0048 113.442 43.405 113.685 42.7915 113.889C42.7115 113.916 42.6314 113.944 42.5513 113.969C41.448 114.32 40.31 114.551 39.1572 114.659C38.6521 114.705 38.1407 114.729 37.6264 114.729C36.2131 114.732 34.8057 114.548 33.4408 114.181C32.7404 113.998 32.0539 113.766 31.3865 113.485C31.3157 113.457 31.2449 113.427 31.177 113.399C31.1402 113.384 31.1062 113.368 31.0692 113.35C30.7797 113.223 30.4934 113.085 30.2131 112.94L30.0776 112.869C29.7357 112.691 29.3999 112.5 29.0734 112.296C28.9534 112.222 28.8332 112.145 28.7162 112.065C28.3466 111.822 27.9863 111.56 27.6351 111.286C27.3979 111.107 27.1701 110.916 26.9483 110.719C26.8313 110.621 26.7173 110.513 26.6064 110.411C26.1698 110.008 25.7564 109.58 25.3683 109.13C25.239 108.982 25.1126 108.834 24.9925 108.68C24.9652 108.65 24.9395 108.618 24.9155 108.585C22.9143 106.06 21.7107 102.996 21.458 99.7837C21.2053 96.5717 21.9151 93.3571 23.4967 90.5501C25.0784 87.743 27.4603 85.4707 30.3386 84.0228C33.217 82.575 36.4613 82.0173 39.6579 82.4208C42.8545 82.8243 45.8585 84.1707 48.2868 86.2884C50.7151 88.4062 52.4576 91.1991 53.292 94.3112C54.1265 97.4232 54.0152 100.713 52.9722 103.762C51.9293 106.81 50.0019 109.479 47.4361 111.428Z" fill="#021A27"/>
<path d="M37.7234 165.626C41.4361 165.626 44.4459 162.616 44.4459 158.903C44.4459 155.191 41.4361 152.181 37.7234 152.181C34.0107 152.181 31.001 155.191 31.001 158.903C31.001 162.616 34.0107 165.626 37.7234 165.626Z" fill="#383E43"/>
<path d="M32.476 155.279C33.5623 154.192 33.7825 152.651 32.9677 151.836C32.153 151.022 30.6119 151.242 29.5256 152.328C28.4392 153.415 28.2191 154.956 29.0338 155.77C29.8486 156.585 31.3897 156.365 32.476 155.279Z" fill="#383E43"/>
<path d="M44.7299 153.144C45.1825 152.084 44.4042 150.736 42.9914 150.133C41.5786 149.529 40.0664 149.899 39.6137 150.958C39.1611 152.018 39.9395 153.366 41.3523 153.97C42.7651 154.573 44.2773 154.203 44.7299 153.144Z" fill="#383E43"/>
<path d="M45.7644 171.943L44.9724 170.697C44.6363 169.946 44.0164 169.359 43.2484 169.064C42.4805 168.77 41.627 168.791 40.875 169.125C40.1231 169.458 39.5338 170.076 39.2364 170.843C38.939 171.61 38.9577 172.463 39.2883 173.216L39.5135 174.024L39.7699 174.94C40.8075 174.809 41.8314 174.586 42.8292 174.272C42.8322 174.272 42.8349 174.271 42.837 174.269C43.5746 174.035 44.2947 173.75 44.9919 173.414C44.9957 173.411 44.9995 173.411 45.0035 173.407C45.1588 173.333 45.3102 173.255 45.4655 173.178C45.4909 173.166 45.5155 173.153 45.5392 173.139C45.6634 173.077 45.7878 173.011 45.9082 172.945C46.0323 172.879 46.1527 172.809 46.2691 172.735L45.7644 171.943Z" fill="#CACACA"/>
<path d="M37.9365 166.213C41.0874 166.213 43.6417 163.659 43.6417 160.508C43.6417 157.357 41.0874 154.803 37.9365 154.803C34.7855 154.803 32.2312 157.357 32.2312 160.508C32.2312 163.659 34.7855 166.213 37.9365 166.213Z" fill="#FFB6B6"/>
<path d="M46.1759 171.698C45.5466 170.652 44.7654 169.705 43.8579 168.887C43.2364 168.332 42.4319 168.025 41.5984 168.026H33.5614C33.0983 168.025 32.6401 168.12 32.2151 168.304C31.79 168.488 31.4072 168.757 31.0903 169.095C30.7734 169.432 30.5291 169.831 30.3724 170.267C30.2158 170.703 30.1502 171.166 30.1797 171.628C30.1973 171.889 30.2442 172.147 30.3196 172.397C30.3769 172.579 30.4483 172.755 30.5331 172.925L30.9291 173.717C30.9602 173.729 30.9913 173.744 31.0222 173.756C31.03 173.76 31.034 173.76 31.0377 173.764C31.2008 173.83 31.364 173.896 31.5308 173.958C32.0772 174.167 32.6345 174.346 33.2004 174.494C34.1113 174.738 35.0412 174.906 35.9802 174.995C36.5277 175.045 37.0752 175.072 37.6265 175.072C38.174 175.072 38.7097 175.045 39.2455 174.995C39.4203 174.979 39.5949 174.96 39.7696 174.94C40.8073 174.809 41.8312 174.586 42.829 174.273C42.832 174.272 42.8347 174.271 42.8368 174.269C43.5744 174.035 44.2945 173.75 44.9917 173.414C44.9955 173.411 44.9993 173.411 45.0033 173.407C45.1586 173.333 45.31 173.255 45.4653 173.178C45.4907 173.166 45.5153 173.153 45.539 173.139C45.6632 173.077 45.7876 173.011 45.908 172.945C46.0321 172.879 46.1524 172.809 46.2689 172.735C46.3933 172.669 46.5097 172.595 46.6301 172.522C46.4826 172.23 46.3311 171.959 46.1759 171.698Z" fill="#CACACA"/>
<path d="M35.0176 169.066C34.2738 168.718 33.4226 168.679 32.65 168.957C31.8773 169.235 31.2462 169.807 30.8945 170.549L30.1799 171.629L29.8383 172.145L29.3181 172.929C29.4267 172.987 29.5316 173.046 29.6404 173.104L29.7839 173.178C30.1179 173.348 30.4556 173.512 30.8052 173.663C30.8438 173.682 30.8867 173.698 30.9293 173.717C30.9604 173.729 30.9915 173.745 31.0224 173.756C31.0302 173.76 31.0342 173.76 31.0379 173.764C31.201 173.83 31.3642 173.896 31.531 173.958C32.0774 174.167 32.6348 174.346 33.2006 174.494C34.1115 174.738 35.0414 174.906 35.9804 174.995L36.2523 174.075L36.5163 173.197C36.8644 172.45 36.9021 171.596 36.6211 170.822C36.3401 170.047 35.7634 169.416 35.0176 169.066Z" fill="#CACACA"/>
<path d="M31.9417 156.919C33.2454 157.818 34.7928 158.296 36.3762 158.29C35.8114 158.682 35.1684 158.946 34.4915 159.065C36.5967 159.517 38.7725 159.529 40.8827 159.101C41.3518 159.026 41.8044 158.87 42.2206 158.642C42.4281 158.526 42.6088 158.368 42.7511 158.177C42.8934 157.987 42.994 157.769 43.0465 157.537C43.1867 156.736 42.5625 156.008 41.9138 155.518C40.9207 154.778 39.7755 154.269 38.5613 154.026C37.3471 153.784 36.0941 153.814 34.893 154.115C34.0927 154.276 33.3645 154.687 32.8137 155.29C32.5471 155.597 32.3862 155.981 32.3547 156.386C32.3232 156.791 32.4228 157.195 32.6387 157.539L31.9417 156.919Z" fill="#383E43"/>
<path d="M53.8323 152.274C53.0121 149.917 51.6875 147.767 49.9511 145.975C48.2146 144.182 46.108 142.79 43.7782 141.895C41.4484 141.001 38.9514 140.625 36.4615 140.794C33.9715 140.964 31.5486 141.675 29.3615 142.877C27.1744 144.079 25.276 145.744 23.7985 147.755C22.321 149.767 21.3001 152.076 20.8069 154.522C20.3137 156.969 20.3601 159.494 20.943 161.92C21.5258 164.347 22.631 166.617 24.1814 168.573C24.3327 168.767 24.496 168.961 24.659 169.148C24.6683 169.161 24.6787 169.174 24.6901 169.186C25.0922 169.649 25.5199 170.088 25.9713 170.503C26.0877 170.611 26.208 170.724 26.3324 170.829C26.5652 171.038 26.806 171.236 27.0583 171.427C27.1554 171.504 27.2524 171.582 27.3535 171.656C27.7455 171.955 28.1571 172.23 28.5764 172.498C28.5836 172.498 28.5905 172.501 28.5958 172.506C28.7161 172.58 28.8405 172.654 28.9647 172.723C29.0811 172.793 29.2015 172.863 29.318 172.929C29.4267 172.987 29.5315 173.046 29.6403 173.104L29.7838 173.178C30.1179 173.348 30.4555 173.512 30.8051 173.663C30.8438 173.682 30.8866 173.698 30.9293 173.717C30.9604 173.729 30.9914 173.744 31.0223 173.756C31.0301 173.76 31.0341 173.76 31.0379 173.764C31.2009 173.83 31.3641 173.896 31.531 173.958C32.0773 174.167 32.6347 174.346 33.2006 174.494C34.1115 174.738 35.0413 174.906 35.9803 174.995C36.5278 175.045 37.0753 175.072 37.6266 175.072C38.1741 175.072 38.7099 175.045 39.2456 174.995C39.4204 174.979 39.595 174.96 39.7698 174.94C40.8075 174.809 41.8313 174.586 42.8292 174.273C42.8321 174.272 42.8349 174.271 42.837 174.269C43.5746 174.035 44.2947 173.75 44.9919 173.414C44.9957 173.411 44.9995 173.411 45.0034 173.407C45.1587 173.333 45.3102 173.255 45.4654 173.178C45.4908 173.166 45.5154 173.153 45.5392 173.139C45.6634 173.077 45.7877 173.011 45.9081 172.945C46.0323 172.879 46.1526 172.809 46.2691 172.735C46.3934 172.669 46.5098 172.595 46.6302 172.521C46.6924 172.483 46.7545 172.444 46.8166 172.405C46.9021 172.355 46.9796 172.304 47.0651 172.246C47.1815 172.172 47.2981 172.091 47.4105 172.009C47.562 171.904 47.7135 171.795 47.861 171.683C47.9107 171.65 47.9586 171.615 48.0047 171.578C50.8879 169.386 53.0042 166.339 54.0509 162.872C55.0976 159.404 55.0211 155.695 53.8323 152.274ZM47.4378 170.829C47.3368 170.91 47.2319 170.988 47.1273 171.058C47.0223 171.135 46.9214 171.209 46.8166 171.279C46.7273 171.341 46.638 171.403 46.5449 171.462C46.5365 171.469 46.5273 171.475 46.5176 171.481C46.4516 171.528 46.3817 171.57 46.3157 171.613C46.2691 171.64 46.2226 171.671 46.176 171.698C46.0401 171.784 45.9042 171.865 45.7644 171.943C45.6907 171.99 45.613 172.032 45.5392 172.075C45.5121 172.091 45.4848 172.106 45.4577 172.122C45.3373 172.188 45.2209 172.246 45.1043 172.308C45.089 172.32 45.0694 172.323 45.0579 172.335C45.0506 172.335 45.0437 172.338 45.0383 172.343C44.8909 172.421 44.7394 172.494 44.5881 172.564C44.0051 172.845 43.4046 173.087 42.7903 173.29C42.7128 173.317 42.6313 173.349 42.5536 173.372C41.5634 173.686 40.5454 173.904 39.5135 174.024C39.3971 174.04 39.2767 174.051 39.1563 174.063C38.6517 174.109 38.143 174.133 37.6266 174.133C37.1684 174.133 36.7064 174.113 36.2522 174.075C35.3026 173.995 34.3619 173.832 33.4414 173.585C32.7406 173.403 32.0542 173.169 31.3875 172.886C31.3524 172.871 31.3175 172.859 31.2827 172.844C31.2438 172.828 31.2127 172.817 31.1778 172.801C31.139 172.786 31.1079 172.77 31.069 172.751C30.8167 172.642 30.5644 172.522 30.3198 172.397C30.2847 172.378 30.2499 172.362 30.215 172.343L30.079 172.273C29.9975 172.23 29.916 172.188 29.8383 172.145C29.5782 172.005 29.3219 171.854 29.0735 171.698C28.9803 171.64 28.8794 171.578 28.7861 171.516L28.7162 171.469C28.4987 171.322 28.2815 171.174 28.0678 171.015C27.9241 170.906 27.7766 170.802 27.6369 170.689C27.4001 170.51 27.1709 170.32 26.9497 170.122C26.8331 170.025 26.7167 169.916 26.6081 169.815C26.1709 169.413 25.7573 168.985 25.3696 168.534C25.2414 168.387 25.1133 168.239 24.9929 168.084C24.9658 168.053 24.9425 168.022 24.9152 167.987C22.9136 165.461 21.7095 162.397 21.4566 159.185C21.2036 155.972 21.9133 152.757 23.495 149.949C25.0767 147.142 27.4587 144.869 30.3374 143.421C33.2161 141.973 36.4608 141.415 39.6579 141.818C42.855 142.222 45.8594 143.568 48.2881 145.686C50.7168 147.804 52.4596 150.597 53.2943 153.71C54.129 156.822 54.0177 160.113 52.9746 163.162C51.9316 166.211 50.004 168.88 47.4378 170.829Z" fill="#021A27"/>
<path d="M55.2913 65.5559C48.5829 62.7132 41.1923 61.8821 34.0188 63.1637C26.8453 64.4453 20.1983 67.7844 14.8865 72.7746C9.57473 77.7649 5.82725 84.1911 4.10008 91.2713C2.37291 98.3516 2.74051 105.781 5.15816 112.654C7.57582 119.528 11.9393 125.55 17.7176 129.988C23.4959 134.426 30.4399 137.088 37.7046 137.65C44.9693 138.212 52.2415 136.65 58.6363 133.155C65.031 129.659 70.2727 124.381 73.7233 117.961L129.264 141.496C130.109 141.852 131.06 141.858 131.91 141.514C132.76 141.169 133.439 140.502 133.797 139.658C134.156 138.814 134.166 137.862 133.824 137.011C133.482 136.16 132.817 135.48 131.974 135.119L131.968 135.116L76.4277 111.582C79.2744 102.653 78.6851 92.9851 74.7752 84.4712C70.8653 75.9573 63.9168 69.2115 55.2913 65.5559ZM66.1773 110.833C64.003 115.962 60.3569 120.331 55.7001 123.389C51.0433 126.446 45.585 128.054 40.0154 128.01C34.4458 127.965 29.0151 126.27 24.41 123.138C19.8049 120.006 16.2322 115.579 14.1438 110.415C12.0553 105.252 11.5449 99.585 12.6771 94.1306C13.8093 88.6761 16.5332 83.6794 20.5044 79.7723C24.4756 75.8651 29.5156 73.2231 34.9873 72.1802C40.4589 71.1373 46.1164 71.7404 51.2442 73.9133C58.1204 76.827 63.5568 82.3537 66.3573 89.2774C69.1578 96.2011 69.093 103.955 66.1773 110.833Z" fill="#021A27"/>
<path opacity="0.3" d="M20.5695 121.907C14.7736 117.016 11.0291 110.124 10.0793 102.6C9.12959 95.0758 11.0441 87.4698 15.4428 81.292C14.8651 81.8737 14.3067 82.483 13.7675 83.1198C11.2089 86.152 9.27257 89.6585 8.06913 93.4391C6.86569 97.2196 6.41867 101.2 6.7536 105.154C7.08852 109.107 8.19883 112.955 10.0211 116.48C11.8434 120.004 14.342 123.135 17.3743 125.693C20.4065 128.252 23.913 130.188 27.6936 131.392C31.4741 132.595 35.4547 133.042 39.408 132.707C43.3613 132.372 47.21 131.262 50.7342 129.44C54.2584 127.617 57.3892 125.119 59.9478 122.086C60.4858 121.449 60.9924 120.796 61.4677 120.128C56.1179 125.503 48.9423 128.67 41.3658 128.999C33.7892 129.329 26.3657 126.797 20.5695 121.907Z" fill="black"/>
<path d="M228.963 256H81.0379C80.9349 256 80.8362 255.959 80.7634 255.886C80.6906 255.813 80.6497 255.715 80.6497 255.612C80.6497 255.509 80.6906 255.41 80.7634 255.337C80.8362 255.264 80.9349 255.224 81.0379 255.224H228.963C229.066 255.224 229.164 255.264 229.237 255.337C229.31 255.41 229.351 255.509 229.351 255.612C229.351 255.715 229.31 255.813 229.237 255.886C229.164 255.959 229.066 256 228.963 256Z" fill="#CACACA"/>
<path d="M126.343 140.956C126.891 141.066 127.456 141.054 127.999 140.922C128.542 140.79 129.049 140.541 129.485 140.191C129.921 139.842 130.275 139.401 130.523 138.899C130.77 138.398 130.905 137.848 130.917 137.289L159.788 110.087L153.292 104.899L126.906 133.338C125.966 133.38 125.075 133.765 124.4 134.421C123.725 135.077 123.314 135.958 123.245 136.897C123.175 137.836 123.453 138.768 124.024 139.516C124.595 140.264 125.42 140.776 126.343 140.956Z" fill="#FFB7B7"/>
<path d="M155.697 114.484L150.08 107.894C149.921 107.707 149.803 107.487 149.736 107.25C149.668 107.013 149.653 106.764 149.69 106.52C149.728 106.277 149.817 106.044 149.952 105.838C150.088 105.632 150.266 105.458 150.475 105.327L157.787 100.745C158.75 99.9314 159.996 99.5334 161.251 99.6382C162.507 99.7429 163.67 100.342 164.485 101.304C165.3 102.266 165.7 103.512 165.599 104.769C165.497 106.026 164.902 107.191 163.943 108.01L158.292 114.498C158.13 114.684 157.93 114.832 157.705 114.934C157.481 115.035 157.237 115.087 156.991 115.085C156.745 115.084 156.502 115.03 156.279 114.926C156.055 114.822 155.857 114.671 155.697 114.484Z" fill="#0097F0"/>
<path d="M140.593 248.714L133.534 248.714L130.176 221.458L140.594 221.458L140.593 248.714Z" fill="#FFB7B7"/>
<path d="M142.393 255.563L119.632 255.562V255.274C119.632 252.922 120.565 250.666 122.227 249.003C123.888 247.34 126.142 246.406 128.491 246.406H128.492L142.394 246.406L142.393 255.563Z" fill="#383E43"/>
<path d="M197.02 248.714L189.961 248.714L186.603 221.458L197.021 221.458L197.02 248.714Z" fill="#FFB7B7"/>
<path d="M198.82 255.563L176.059 255.562V255.274C176.059 252.922 176.993 250.666 178.654 249.003C180.316 247.34 182.569 246.406 184.918 246.406L198.821 246.406L198.82 255.563Z" fill="#383E43"/>
<path d="M178.032 128.932L185.148 102.616L175.917 97.4216H163.032L158.021 102.789C158.021 102.789 149.648 108.62 151.674 115.081L154.944 129.797L149.943 153.17L124.751 188.143L118.787 222.496L142.263 228.656L167.647 178.621L179.955 234.023L202.852 232.871L194.962 165.695C194.962 165.695 192.713 145.231 180.924 132.454L178.032 128.932Z" fill="#383E43"/>
<path d="M192.727 152.216C193.124 151.823 193.43 151.347 193.623 150.822C193.816 150.297 193.892 149.737 193.845 149.179C193.799 148.622 193.63 148.082 193.353 147.597C193.075 147.112 192.694 146.693 192.237 146.371L186.716 109.087L178.792 111.592L186.725 147.501C186.235 148.304 186.057 149.26 186.225 150.187C186.392 151.113 186.893 151.946 187.633 152.527C188.373 153.108 189.3 153.398 190.239 153.341C191.178 153.283 192.063 152.883 192.727 152.216Z" fill="#FFB7B7"/>
<path d="M188.081 114.938L179.485 115.93C179.24 115.958 178.992 115.933 178.758 115.857C178.524 115.781 178.309 115.655 178.128 115.488C177.947 115.321 177.804 115.117 177.709 114.89C177.613 114.663 177.568 114.417 177.576 114.171L177.855 105.54C177.717 104.286 178.082 103.029 178.869 102.044C179.656 101.059 180.801 100.427 182.053 100.286C183.305 100.145 184.562 100.507 185.548 101.293C186.534 102.078 187.168 103.223 187.312 104.476L189.54 112.79C189.604 113.028 189.615 113.277 189.574 113.52C189.533 113.763 189.44 113.995 189.302 114.198C189.163 114.402 188.983 114.574 188.772 114.701C188.561 114.829 188.326 114.91 188.081 114.938Z" fill="#0097F0"/>
<path d="M155.065 89.9371V78.849C155.068 74.91 156.633 71.1331 159.416 68.3486C162.199 65.5642 165.973 64 169.908 64C173.843 64 177.617 65.5642 180.4 68.3486C183.184 71.1331 184.749 74.91 184.751 78.849V89.9371C184.75 90.4662 184.54 90.9735 184.166 91.3477C183.793 91.7219 183.286 91.9323 182.757 91.9329H157.059C156.531 91.9323 156.024 91.7219 155.65 91.3477C155.276 90.9735 155.066 90.4662 155.065 89.9371Z" fill="#383E43"/>
<path d="M166.858 91.6757C172.868 91.6757 177.741 86.7986 177.741 80.7823C177.741 74.7661 172.868 69.8889 166.858 69.8889C160.848 69.8889 155.976 74.7661 155.976 80.7823C155.976 86.7986 160.848 91.6757 166.858 91.6757Z" fill="#FFB7B7"/>
<path d="M151.554 79.736C151.557 76.6199 152.796 73.6324 154.997 71.429C157.198 69.2256 160.182 67.9862 163.295 67.9827H165.511C168.624 67.9862 171.608 69.2256 173.809 71.4291C176.01 73.6325 177.248 76.6199 177.252 79.736V79.9578H172.57L170.973 75.4818L170.654 79.9578H168.235L167.429 77.6995L167.268 79.9578H151.554L151.554 79.736Z" fill="#383E43"/>
<path d="M165.787 93.1805C165.567 92.8826 165.436 92.5286 165.409 92.1592C165.381 91.7899 165.458 91.4202 165.631 91.0929C167.979 86.623 171.266 78.3636 166.903 73.27L166.589 72.9041H179.255V91.9401L167.749 93.9723C167.633 93.9929 167.515 94.0034 167.396 94.0035C167.082 94.0035 166.773 93.9289 166.493 93.7858C166.213 93.6428 165.971 93.4353 165.787 93.1805Z" fill="#383E43"/>
</g>
<defs>
<clipPath id="clip0_8570_35603">
<rect width="229.351" height="256" fill="white"/>
</clipPath>
</defs>
</svg>
