<svg width="302" height="264" viewBox="0 0 302 264" fill="none" xmlns="http://www.w3.org/2000/svg">
<path d="M219.5 247C265.063 247 302 244.538 302 241.5C302 238.462 265.063 236 219.5 236C173.937 236 137 238.462 137 241.5C137 244.538 173.937 247 219.5 247Z" fill="#F2F2F2"/>
<path d="M84.6357 149.96C84.075 150.041 83.5033 149.998 82.961 149.835C82.4187 149.672 81.9189 149.392 81.4967 149.016C81.0746 148.64 80.7403 148.176 80.5176 147.657C80.2948 147.138 80.1889 146.577 80.2073 146.013L55.8632 128.135L45 111L73.516 133.996L84.4881 142.253C85.4375 142.347 86.3193 142.784 86.9665 143.482C87.6137 144.181 87.9811 145.091 87.9993 146.042C88.0174 146.992 87.685 147.916 87.065 148.638C86.4449 149.36 85.5808 149.831 84.6357 149.96Z" fill="#FFB7B7"/>
<path d="M58 162L29 158.095L31.5523 141H52.9023L58 162Z" fill="#FFB6B6"/>
<path d="M9 248.636L14.9017 250L23 228.013L14.2898 226L9 248.636Z" fill="#FFB6B6"/>
<path d="M4 258.546L8.16784 259.568L9.82618 255.597L10.8171 260.218L21.8713 262.93C22.4012 263.06 22.9565 263.008 23.4563 262.781C23.9561 262.554 24.3741 262.165 24.6494 261.669C24.9246 261.174 25.0426 260.599 24.9863 260.028C24.9299 259.456 24.702 258.919 24.3359 258.494L16.9252 249.893L17.8496 245.693L8.43581 244L4 258.546Z" fill="#2A2F32"/>
<path d="M45 252H51.0982L54 229H45V252Z" fill="#FFB6B6"/>
<path d="M42 263H46.2996L47.0671 258.958L49.0327 263H60.4364C60.983 263 61.5153 262.826 61.9557 262.504C62.396 262.181 62.7212 261.727 62.8839 261.207C63.0465 260.688 63.0381 260.13 62.8599 259.616C62.6816 259.101 62.3428 258.657 61.893 258.348L52.7864 252.086V248L43.2078 248.569L42 263Z" fill="#2A2F32"/>
<path d="M28.5203 155.254L56.6782 153C64.9873 172.534 66.3996 204.896 60.0141 240H39.8601L43.5592 183.592L25.0805 240L0 236.121L28.5203 155.254Z" fill="#383E43"/>
<path d="M45 104.286V94.7622C45 91.3775 43.6423 88.1314 41.2255 85.738C38.8087 83.3446 35.5309 82 32.1131 82C28.6952 82 25.4174 83.3446 23.0006 85.738C20.5838 88.1314 19.2261 91.3775 19.2261 94.7622C16.9548 99.4495 18.3757 101.678 19.2261 104.286C19.2269 104.741 19.4094 105.176 19.7338 105.497C20.0581 105.818 20.4977 105.999 20.9564 106H43.2688C43.7277 105.999 44.1675 105.819 44.4921 105.498C44.8166 105.176 44.9992 104.741 45 104.286Z" fill="#383E43"/>
<path d="M35.5 106C40.7467 106 45 101.747 45 96.5C45 91.2533 40.7467 87 35.5 87C30.2533 87 26 91.2533 26 96.5C26 101.747 30.2533 106 35.5 106Z" fill="#FFB7B7"/>
<path d="M48 95.369C47.997 92.62 46.937 89.9844 45.0526 88.0405C43.1682 86.0966 40.6133 85.0031 37.9483 85H36.0517C33.3867 85.0031 30.8318 86.0965 28.9474 88.0404C27.063 89.9843 26.003 92.62 26 95.369V95.5648C27.4205 96.5665 28.769 96.713 30.0082 95.5648L31.3752 91.616L31.6486 95.5647H33.7203L34.4109 93.5726L34.549 95.5648C37.3473 98.0231 42.6386 96.845 48 95.5648V95.369Z" fill="#383E43"/>
<path d="M28.6951 156L57 154.194L55.5402 129.165C56.5872 126.289 56.6043 123.818 55.5905 121.826C54.7186 120.189 53.2537 118.937 51.4886 118.321L46.1737 111.975C45.49 111.159 44.6315 110.504 43.6603 110.056C42.6892 109.608 41.6295 109.38 40.558 109.386L26.7476 109.48C26.4149 109.282 24.3957 108.267 20.4136 109.973C16.0945 111.824 17.0974 118.253 17.1083 118.318L17.1182 118.378L17.1657 118.419L26.3512 126.069L30.9777 141.105L28.6951 156Z" fill="#383E43"/>
<path d="M23.4044 176.99C22.9779 176.613 22.6406 176.149 22.4162 175.631C22.1918 175.112 22.0856 174.551 22.1053 173.988C22.125 173.425 22.27 172.873 22.5302 172.37C22.7903 171.868 23.1592 171.428 23.611 171.081L16 148.214V132L26.0104 134.702L23.611 145.062L29.3177 171.943C29.8606 172.728 30.0917 173.682 29.967 174.623C29.8423 175.565 29.3707 176.429 28.6414 177.051C27.9121 177.673 26.9759 178.011 26.0104 178C25.0448 177.989 24.1169 177.629 23.4027 176.99L23.4044 176.99Z" fill="#FFB7B7"/>
<path d="M16 131.852L25.8255 135V131.852L27.9384 120.57L18.9224 115.758L17.0121 118.14V118.194L16 126.006V131.852Z" fill="#0097F0"/>
<path d="M55.0892 123.362L56.4533 128.759L61 123.362L53.2706 113.382L44.2546 111L50.5425 118.194L55.0892 123.362Z" fill="#0097F0"/>
<path d="M108 146.326L39.4314 195L23 171.675L91.5686 123L108 146.326Z" fill="white"/>
<path d="M45.4864 179.57C48.1741 177.67 48.8122 173.95 46.9118 171.263C45.0113 168.575 41.2919 167.937 38.6042 169.837C35.9166 171.738 35.2784 175.457 37.1789 178.145C39.0794 180.832 42.7988 181.471 45.4864 179.57Z" fill="#006BAA"/>
<path d="M50.4384 163.197C50.2138 163.349 50.0615 163.58 50.0149 163.84C49.9684 164.099 50.0315 164.366 50.1903 164.58C50.3492 164.795 50.5907 164.941 50.8619 164.986C51.133 165.03 51.4116 164.97 51.6362 164.818L91.5616 137.803C91.6728 137.728 91.7675 137.632 91.8401 137.522C91.9128 137.412 91.962 137.289 91.9851 137.16C92.0081 137.032 92.0045 136.9 91.9744 136.773C91.9443 136.646 91.8883 136.526 91.8097 136.42C91.731 136.313 91.6312 136.223 91.516 136.153C91.4008 136.083 91.2724 136.036 91.1381 136.014C91.0039 135.992 90.8664 135.996 90.7335 136.025C90.6007 136.053 90.4751 136.107 90.3638 136.182L50.4384 163.197Z" fill="#383E43"/>
<path d="M54.4207 169.137C54.3142 169.214 54.2236 169.313 54.1539 169.426C54.0842 169.54 54.0369 169.667 54.0146 169.8C53.9923 169.932 53.9955 170.068 54.024 170.199C54.0525 170.331 54.1058 170.455 54.1807 170.565C54.2557 170.675 54.3508 170.769 54.4608 170.841C54.5708 170.913 54.6934 170.962 54.8217 170.985C54.9499 171.008 55.0813 171.005 55.2083 170.975C55.3353 170.946 55.4555 170.891 55.562 170.813L55.5652 170.811L85.5811 148.862C85.7957 148.705 85.9413 148.466 85.9857 148.198C86.0302 147.93 85.9699 147.655 85.8181 147.433C85.6663 147.211 85.4355 147.061 85.1764 147.015C84.9173 146.969 84.6512 147.031 84.4365 147.188L54.4207 169.137Z" fill="#383E43"/>
<path d="M108 146.326L39.4314 195L23 171.675L91.5686 123L108 146.326ZM39.8317 192.658L105.667 145.923L91.1679 125.342L25.3335 172.077L39.8317 192.658Z" fill="#383E43"/>
<path d="M279 56.7953H277.678V20.821C277.678 15.2989 275.469 10.003 271.537 6.09834C267.605 2.19364 262.272 6.09677e-06 256.712 0H179.966C174.405 -1.04515e-05 169.073 2.19361 165.141 6.09829C161.209 10.003 159 15.2989 159 20.8209V218.179C159 223.701 161.209 228.997 165.141 232.902C169.073 236.806 174.405 239 179.966 239H256.712C262.272 239 267.605 236.806 271.537 232.902C275.469 228.997 277.678 223.701 277.678 218.179V82.4025H279L279 56.7953Z" fill="#DBDFE1"/>
<path d="M272 20.5382V217.462C272 221.583 270.372 225.535 267.474 228.449C264.577 231.363 260.647 233 256.549 233H180.451C176.353 233 172.423 231.363 169.526 228.449C166.628 225.535 165 221.583 165 217.462V20.5382C165 16.4173 166.628 12.4651 169.526 9.55112C172.423 6.63716 176.353 5.00008 180.451 5H189.683C189.229 6.12097 189.056 7.33687 189.18 8.54074C189.303 9.74461 189.719 10.8996 190.39 11.904C191.061 12.9084 191.968 13.7315 193.03 14.301C194.092 14.8704 195.277 15.1687 196.48 15.1696H239.867C241.071 15.1687 242.256 14.8704 243.318 14.301C244.379 13.7315 245.286 12.9084 245.957 11.904C246.629 10.8995 247.044 9.74459 247.168 8.54073C247.291 7.33687 247.118 6.12097 246.665 5H256.549C260.647 5.00008 264.577 6.63716 267.474 9.55112C270.372 12.4651 272 16.4173 272 20.5382Z" fill="white"/>
<path d="M251.998 102H145V66H252L251.998 102Z" fill="white"/>
<path d="M221 115H116V165H221V115Z" fill="#383E43"/>
<path d="M133 139C137.418 139 141 135.642 141 131.5C141 127.358 137.418 124 133 124C128.582 124 125 127.358 125 131.5C125 135.642 128.582 139 133 139Z" fill="#006BAA"/>
<path d="M150.24 127C149.909 127.005 149.594 127.112 149.362 127.299C149.13 127.486 149 127.738 149 128C149 128.262 149.13 128.514 149.362 128.701C149.594 128.888 149.909 128.995 150.24 129H209.76C210.091 128.995 210.406 128.888 210.638 128.701C210.87 128.514 211 128.262 211 128C211 127.738 210.87 127.486 210.638 127.299C210.406 127.112 210.091 127.005 209.76 127H150.24Z" fill="#E6E6E6"/>
<path d="M150.239 134C149.909 134.006 149.594 134.166 149.363 134.446C149.131 134.726 149.001 135.104 149 135.497C148.999 135.89 149.128 136.268 149.359 136.549C149.59 136.83 149.904 136.992 150.233 137H175.764C176.094 136.993 176.408 136.832 176.639 136.551C176.87 136.271 177 135.893 177 135.5C177 135.107 176.87 134.729 176.639 134.449C176.408 134.168 176.094 134.007 175.764 134H150.239Z" fill="#E6E6E6"/>
<path d="M126.75 146C125.785 146 125 146.672 125 147.5C125 148.328 125.785 149 126.75 149H209.25C210.215 149 211 148.328 211 147.5C211 146.672 210.215 146 209.25 146H126.75Z" fill="#E6E6E6"/>
<path d="M126.75 154C125.785 154 125 154.448 125 155C125 155.552 125.785 156 126.75 156H190.25C191.215 156 192 155.552 192 155C192 154.448 191.215 154 190.25 154H126.75Z" fill="#E6E6E6"/>
<path d="M222 167H115V114H222V167ZM117.133 164.866H219.867V116.134H117.133V164.866Z" fill="#E6E6E6"/>
<path d="M163.5 91C167.642 91 171 87.6421 171 83.5C171 79.3579 167.642 76 163.5 76C159.358 76 156 79.3579 156 83.5C156 87.6421 159.358 91 163.5 91Z" fill="#006BAA"/>
<path d="M180.284 78.0002C180.117 77.9967 179.95 78.0328 179.795 78.1066C179.639 78.1804 179.497 78.2903 179.378 78.4299C179.258 78.5695 179.163 78.7361 179.098 78.9198C179.033 79.1035 179 79.3008 179 79.5C179 79.6992 179.033 79.8965 179.098 80.0802C179.163 80.264 179.258 80.4305 179.378 80.5701C179.497 80.7097 179.639 80.8196 179.795 80.8934C179.95 80.9672 180.117 81.0033 180.284 80.9998H239.761C240.092 80.9927 240.407 80.8316 240.638 80.5511C240.87 80.2706 241 79.8932 241 79.5C241 79.1068 240.87 78.7294 240.638 78.4489C240.407 78.1684 240.092 78.0073 239.761 78.0002H180.284Z" fill="#383E43"/>
<path d="M180.277 87.0001C180.111 86.9988 179.946 87.0107 179.791 87.0352C179.636 87.0596 179.495 87.0962 179.377 87.1426C179.258 87.189 179.163 87.2445 179.098 87.3056C179.034 87.3668 179 87.4325 179 87.499C179 87.5654 179.032 87.6311 179.096 87.6924C179.16 87.7537 179.254 87.8093 179.373 87.8559C179.491 87.9026 179.632 87.9393 179.786 87.964C179.941 87.9888 180.106 88.001 180.272 87.9999H226.725C226.892 88.0011 227.057 87.9891 227.211 87.9645C227.366 87.9399 227.507 87.9032 227.625 87.8567C227.744 87.8102 227.838 87.7547 227.902 87.6934C227.967 87.6322 228 87.5664 228 87.5C228 87.4336 227.967 87.3678 227.902 87.3066C227.838 87.2454 227.744 87.1899 227.625 87.1433C227.507 87.0968 227.366 87.0601 227.211 87.0356C227.057 87.011 226.892 86.9989 226.725 87.0001H180.277Z" fill="#383E43"/>
<path d="M251.998 102H145V66H252L251.998 102ZM147.131 99.8822H249.865V68.1186H147.131L147.131 99.8822Z" fill="#383E43"/>
<path d="M99.9636 264H20V263H100L99.9636 264Z" fill="#CBCBCB"/>
</svg>
