<svg width="200" height="258" viewBox="0 0 200 258" fill="none" xmlns="http://www.w3.org/2000/svg">
<path d="M120 56.7953H118.678V20.821C118.678 15.2989 116.469 10.003 112.537 6.09834C108.605 2.19364 103.272 6.09677e-06 97.712 0H20.9657C15.4053 -1.04515e-05 10.0726 2.19361 6.14075 6.09829C2.20891 10.003 1.57863e-05 15.2989 0 20.8209V218.179C-2.63105e-06 223.701 2.20887 228.997 6.1407 232.902C10.0725 236.806 15.4052 239 20.9657 239H97.7119C103.272 239 108.605 236.806 112.537 232.902C116.469 228.997 118.678 223.701 118.678 218.179V82.4025H120L120 56.7953Z" fill="#DBDFE1"/>
<path d="M113 20.5382V217.462C113 221.583 111.372 225.535 108.474 228.449C105.577 231.363 101.647 233 97.5488 233H21.4512C17.3533 233 13.4233 231.363 10.5256 228.449C7.62798 225.535 6.00007 221.583 6 217.462V20.5382C6.00008 16.4173 7.62799 12.4651 10.5256 9.55112C13.4233 6.63716 17.3533 5.00008 21.4512 5H30.6828C30.2291 6.12097 30.0564 7.33687 30.1797 8.54074C30.303 9.74461 30.7187 10.8996 31.39 11.904C32.0614 12.9084 32.9679 13.7315 34.0298 14.301C35.0917 14.8704 36.2765 15.1687 37.48 15.1696H80.8674C82.0708 15.1687 83.2556 14.8704 84.3176 14.301C85.3795 13.7315 86.286 12.9084 86.9573 11.904C87.6287 10.8995 88.0443 9.74459 88.1676 8.54073C88.2909 7.33687 88.1182 6.12097 87.6646 5H97.5488C101.647 5.00008 105.577 6.63716 108.474 9.55112C111.372 12.4651 113 16.4173 113 20.5382Z" fill="white"/>
<path d="M103.834 128.955C104.473 129.046 105.124 128.998 105.742 128.814C106.36 128.63 106.93 128.314 107.411 127.89C107.892 127.465 108.273 126.942 108.526 126.356C108.78 125.771 108.901 125.138 108.88 124.501L136.621 104.331L149 85L116.505 110.945L104.002 120.26C102.92 120.365 101.915 120.859 101.178 121.647C100.44 122.435 100.021 123.462 100.001 124.534C99.9801 125.606 100.359 126.648 101.066 127.463C101.772 128.278 102.757 128.809 103.834 128.955Z" fill="#FFB7B7"/>
<path d="M134 143L167 138.537L164.096 119H139.801L134 143Z" fill="#FFB6B6"/>
<path d="M190 240.466L183.255 242L174 217.264L183.954 215L190 240.466Z" fill="#FFB6B6"/>
<path d="M195 251.842L190.435 253.026L188.619 248.428L187.534 253.779L175.427 256.919C174.846 257.07 174.238 257.009 173.691 256.747C173.143 256.484 172.685 256.033 172.384 255.459C172.083 254.886 171.953 254.22 172.015 253.558C172.077 252.897 172.326 252.275 172.727 251.783L180.844 241.823L179.831 236.96L190.142 235L195 251.842Z" fill="#2A2F32"/>
<path d="M149 245H142.224L139 218H149V245Z" fill="#FFB6B6"/>
<path d="M152 257H147.086L146.209 252.42L143.963 257H130.93C130.305 257 129.697 256.803 129.194 256.437C128.69 256.072 128.319 255.557 128.133 254.968C127.947 254.379 127.956 253.747 128.16 253.164C128.364 252.581 128.751 252.078 129.265 251.727L139.673 244.631V240L150.62 240.645L152 257Z" fill="#2A2F32"/>
<path d="M167.469 134.565L135.351 132C125.874 154.228 124.263 191.054 131.546 231H154.535L150.315 166.812L171.393 231L200 226.586L167.469 134.565Z" fill="#383E43"/>
<path d="M149 77.0723V66.3575C149 62.5497 150.509 58.8978 153.194 56.2052C155.879 53.5127 159.521 52 163.319 52C167.116 52 170.758 53.5127 173.444 56.2052C176.129 58.8978 177.638 62.5497 177.638 66.3575C180.161 71.6307 178.583 74.1377 177.638 77.0723C177.637 77.5833 177.434 78.0731 177.074 78.4344C176.713 78.7958 176.225 78.9991 175.715 79H150.924C150.414 78.9994 149.925 78.7961 149.564 78.4348C149.204 78.0734 149.001 77.5834 149 77.0723Z" fill="#383E43"/>
<path d="M159.5 79C153.701 79 149 74.299 149 68.5C149 62.701 153.701 58 159.5 58C165.299 58 170 62.701 170 68.5C170 74.299 165.299 79 159.5 79Z" fill="#FFB7B7"/>
<path d="M145 67.0972C145.003 63.8899 146.208 60.8151 148.349 58.5472C150.491 56.2793 153.394 55.0036 156.422 55H158.578C161.606 55.0036 164.509 56.2793 166.651 58.5472C168.792 60.8151 169.997 63.8899 170 67.0972V67.3256C168.386 68.4943 166.853 68.6652 165.445 67.3256L163.892 62.7187L163.581 67.3255H161.227L160.442 65.0013L160.285 67.3256C157.105 70.1936 151.092 68.8192 145 67.3256V67.0972Z" fill="#383E43"/>
<path d="M167.551 136L135 133.964L136.679 105.739C135.475 102.496 135.455 99.7099 136.621 97.4635C137.624 95.617 139.308 94.2055 141.338 93.511L147.45 86.3544C148.237 85.4345 149.224 84.6955 150.341 84.1907C151.457 83.6859 152.676 83.428 153.908 83.4355L169.79 83.5408C170.173 83.3177 172.495 82.1736 177.074 84.0973C182.041 86.1841 180.888 93.4344 180.876 93.5072L180.864 93.5754L180.809 93.6218L170.246 102.248L164.926 119.203L167.551 136Z" fill="#383E43"/>
<path d="M173.538 159.858C174.025 159.433 174.411 158.908 174.667 158.322C174.924 157.735 175.045 157.102 175.022 156.465C175 155.828 174.834 155.204 174.537 154.636C174.24 154.068 173.818 153.571 173.302 153.178L182 127.329V109L170.56 112.055L173.302 123.765L166.78 154.153C166.159 155.041 165.895 156.119 166.038 157.183C166.18 158.247 166.719 159.224 167.553 159.927C168.386 160.631 169.456 161.012 170.56 161C171.663 160.987 172.724 160.581 173.54 159.859L173.538 159.858Z" fill="#FFB7B7"/>
<path d="M182 108.459L170.864 112V108.459L168.47 95.7661L178.688 90.3523L180.853 93.0323V93.0931L182 101.882V108.459Z" fill="#0097F0"/>
<path d="M137.699 98.9078L136.153 104.979L131 98.9078L139.76 87.68L149.978 85.0001L142.852 93.0931L137.699 98.9078Z" fill="#0097F0"/>
<path d="M102.285 36H17V38.6608H102.285V36Z" fill="#E5E5E5"/>
<path d="M102.285 42.918H17V45.5787H102.285V42.918Z" fill="#E5E5E5"/>
<path d="M102.285 49.8359H17V52.4967H102.285V49.8359Z" fill="#E5E5E5"/>
<path d="M102.285 194H17V196.661H102.285V194Z" fill="#E5E5E5"/>
<path d="M102.285 200.918H17V203.579H102.285V200.918Z" fill="#E5E5E5"/>
<path d="M102.285 207.836H17V210.497H102.285V207.836Z" fill="#E5E5E5"/>
<path d="M174.964 258H95V257H175L174.964 258Z" fill="#CBCBCB"/>
<path d="M95.46 78H23.92C21.755 78 20 79.755 20 81.92V172.08C20 174.245 21.755 176 23.92 176H95.46C97.625 176 99.38 174.245 99.38 172.08V81.92C99.38 79.755 97.625 78 95.46 78Z" fill="#545E64"/>
<rect x="22.9399" y="80.9399" width="13.132" height="16.856" rx="2.94" fill="white"/>
<rect x="22.9399" y="99.7562" width="13.132" height="16.856" rx="2.94" fill="white"/>
<rect x="22.9399" y="118.572" width="13.132" height="16.856" rx="2.94" fill="white"/>
<rect x="22.9399" y="137.388" width="13.132" height="16.856" rx="2.94" fill="white"/>
<rect x="22.9399" y="156.204" width="13.132" height="16.856" rx="2.94" fill="white"/>
<rect x="38.0319" y="80.9399" width="13.132" height="16.856" rx="2.94" fill="white"/>
<rect x="38.0319" y="99.7562" width="13.132" height="16.856" rx="2.94" fill="white"/>
<rect x="38.0319" y="118.572" width="13.132" height="16.856" rx="2.94" fill="white"/>
<rect x="38.0319" y="137.388" width="13.132" height="16.856" rx="2.94" fill="white"/>
<rect x="38.0319" y="156.204" width="13.132" height="16.856" rx="2.94" fill="white"/>
<rect x="53.124" y="80.9399" width="13.132" height="16.856" rx="2.94" fill="white"/>
<rect x="53.124" y="99.7562" width="13.132" height="16.856" rx="2.94" fill="white"/>
<rect x="53.3199" y="118.18" width="13.132" height="16.856" rx="2.94" fill="white"/>
<rect x="53.124" y="137.388" width="13.132" height="16.856" rx="2.94" fill="white"/>
<rect x="53.124" y="156.204" width="13.132" height="16.856" rx="2.94" fill="white"/>
<rect x="68.2159" y="80.9399" width="13.132" height="16.856" rx="2.94" fill="white"/>
<rect x="68.2159" y="99.7562" width="13.132" height="16.856" rx="2.94" fill="white"/>
<rect x="68.2159" y="118.572" width="13.132" height="16.856" rx="2.94" fill="white"/>
<rect x="68.2159" y="137.388" width="13.132" height="16.856" rx="2.94" fill="white"/>
<rect x="68.2159" y="156.204" width="13.132" height="16.856" rx="2.94" fill="white"/>
<rect x="83.3081" y="80.9399" width="13.132" height="16.856" rx="2.94" fill="white"/>
<rect x="83.3081" y="99.7562" width="13.132" height="16.856" rx="2.94" fill="white"/>
<rect x="83.3081" y="118.572" width="13.132" height="16.856" rx="2.94" fill="white"/>
<rect x="85" y="122" width="9" height="9" rx="4.5" fill="#006BAA"/>
<path d="M92 124.657L88.4614 129C88.239 128.577 87 126.613 87 126.613C87.1588 126.416 87.3282 126.233 87.5072 126.064L88.5346 127.745L91.5856 124C91.7403 124.202 91.8791 124.422 92 124.657Z" fill="white"/>
<rect x="83.3081" y="137.388" width="13.132" height="16.856" rx="2.94" fill="white"/>
<rect x="83.3081" y="156.204" width="13.132" height="16.856" rx="2.94" fill="white"/>
</svg>
